<svg width="24" height="24" fill="#000" xmlns="http://www.w3.org/2000/svg" viewBox="0 0 24 24"><path fill-rule="evenodd" clip-rule="evenodd" d="m14.55 10.5.3 1.5h2l.3-1.5c.2007-.0827.3883-.17.563-.262.1747-.092.3537-.2047.537-.338l1.45.45 1-1.7-1.15-1c.0333-.2.05-.40833.05-.625 0-.21667-.0167-.425-.05-.625l1.15-1-1-1.75-1.45.5c-.1827-.15-.3617-.275-.537-.375-.1753-.1-.363-.19167-.563-.275l-.3-1.5h-2l-.3 1.5c-.1993.084-.3867.17167-.562.263-.1753.09133-.3547.20367-.538.337L12 3.65l-1 1.7 1.15 1c-.0333.23333-.05.45-.05.65s.0167.41667.05.65l-1.15 1 1 1.7 1.45-.45c.1827.1327.3617.245.537.337.1753.092.363.1797.563.263Zm2.713-2.088C16.871 8.804 16.4 9 15.85 9c-.5493.00067-1.02-.195-1.412-.587-.392-.392-.588-.863-.588-1.413-.0007-.54933.195-1.02.587-1.412C14.829 5.196 15.3 5 15.85 5c.5493-.00067 1.02.195 1.412.587.392.392.588.863.588 1.413.0007.54933-.195 1.02-.587 1.412ZM22 20v-1c0-1.66-1.34-3-3-3h-2c-.0008-.5867-.1802-1.1592-.5142-1.6415-.334-.4822-.8069-.8514-1.3558-1.0585L8.97 11H1v11h6v-1.44l7 1.94 8-2.5ZM5 13v7H3v-7h2Zm14 5c.39 0 .74.24.9.57l-5.93 1.84L7 18.5V13h1.61l5.82 2.17c.34.13.57.46.57.83 0 0-2-.05-2.3-.15l-2.38-.79-.63 1.9 2.38.79c.51.17 1.04.25 1.58.25H19Z"/></svg>