<svg width="21" height="20" viewBox="0 0 21 20" fill="none" xmlns="http://www.w3.org/2000/svg">
<path d="M10.5 20C9.13333 20 7.84167 19.7373 6.625 19.212C5.40833 18.6873 4.346 17.9707 3.438 17.062C2.52933 16.154 1.81267 15.0917 1.288 13.875C0.762667 12.6583 0.5 11.3667 0.5 10C0.5 8.61667 0.762667 7.321 1.288 6.113C1.81267 4.90433 2.52933 3.846 3.438 2.938C4.346 2.02933 5.40833 1.31233 6.625 0.787C7.84167 0.262333 9.13333 0 10.5 0C11.8833 0 13.179 0.262333 14.387 0.787C15.5957 1.31233 16.654 2.02933 17.562 2.938C18.4707 3.846 19.1873 4.90433 19.712 6.113C20.2373 7.321 20.5 8.61667 20.5 10C20.5 11.3667 20.2373 12.6583 19.712 13.875C19.1873 15.0917 18.4707 16.154 17.562 17.062C16.654 17.9707 15.5957 18.6873 14.387 19.212C13.179 19.7373 11.8833 20 10.5 20ZM14.45 6H17.4C16.9167 5.16667 16.3123 4.44167 15.587 3.825C14.8623 3.20833 14.0333 2.75 13.1 2.45C13.4 3 13.6627 3.57067 13.888 4.162C14.1127 4.754 14.3 5.36667 14.45 6ZM8.6 6H12.4C12.2 5.26667 11.9417 4.575 11.625 3.925C11.3083 3.275 10.9333 2.65 10.5 2.05C10.0667 2.65 9.69167 3.275 9.375 3.925C9.05833 4.575 8.8 5.26667 8.6 6ZM2.75 12H6.15C6.1 11.6667 6.06233 11.3373 6.037 11.012C6.01233 10.6873 6 10.35 6 10C6 9.65 6.01233 9.31267 6.037 8.988C6.06233 8.66267 6.1 8.33333 6.15 8H2.75C2.66667 8.33333 2.604 8.66267 2.562 8.988C2.52067 9.31267 2.5 9.65 2.5 10C2.5 10.35 2.52067 10.6873 2.562 11.012C2.604 11.3373 2.66667 11.6667 2.75 12ZM7.9 17.55C7.6 17 7.33767 16.429 7.113 15.837C6.88767 15.2457 6.7 14.6333 6.55 14H3.6C4.08333 14.8333 4.68733 15.5583 5.412 16.175C6.13733 16.7917 6.96667 17.25 7.9 17.55ZM3.6 6H6.55C6.7 5.36667 6.88767 4.754 7.113 4.162C7.33767 3.57067 7.6 3 7.9 2.45C6.96667 2.75 6.13733 3.20833 5.412 3.825C4.68733 4.44167 4.08333 5.16667 3.6 6ZM10.5 17.95C10.9333 17.35 11.3083 16.725 11.625 16.075C11.9417 15.425 12.2 14.7333 12.4 14H8.6C8.8 14.7333 9.05833 15.425 9.375 16.075C9.69167 16.725 10.0667 17.35 10.5 17.95ZM8.15 12H12.85C12.9 11.6667 12.9377 11.3373 12.963 11.012C12.9877 10.6873 13 10.35 13 10C13 9.65 12.9877 9.31267 12.963 8.988C12.9377 8.66267 12.9 8.33333 12.85 8H8.15C8.1 8.33333 8.06267 8.66267 8.038 8.988C8.01267 9.31267 8 9.65 8 10C8 10.35 8.01267 10.6873 8.038 11.012C8.06267 11.3373 8.1 11.6667 8.15 12ZM13.1 17.55C14.0333 17.25 14.8623 16.7917 15.587 16.175C16.3123 15.5583 16.9167 14.8333 17.4 14H14.45C14.3 14.6333 14.1127 15.2457 13.888 15.837C13.6627 16.429 13.4 17 13.1 17.55ZM14.85 12H18.25C18.3333 11.6667 18.396 11.3373 18.438 11.012C18.4793 10.6873 18.5 10.35 18.5 10C18.5 9.65 18.4793 9.31267 18.438 8.988C18.396 8.66267 18.3333 8.33333 18.25 8H14.85C14.9 8.33333 14.9373 8.66267 14.962 8.988C14.9873 9.31267 15 9.65 15 10C15 10.35 14.9873 10.6873 14.962 11.012C14.9373 11.3373 14.9 11.6667 14.85 12Z" fill="#0098FF"/>
</svg>
